<?xml version="1.0" encoding="utf-8"?>
<!-- Generator: Adobe Illustrator 24.0.1, SVG Export Plug-In . SVG Version: 6.00 Build 0)  -->
<svg version="1.1" id="Layer_1" xmlns="http://www.w3.org/2000/svg" xmlns:xlink="http://www.w3.org/1999/xlink" x="0px" y="0px"
	 viewBox="0 0 52 16" style="enable-background:new 0 0 52 16;" xml:space="preserve">
<style type="text/css">
	.st0{fill-rule:evenodd;clip-rule:evenodd;fill:#0C86C6;}
</style>
<title>Group 4 Copy</title>
<desc>Created with Sketch.</desc>
<g id="Page-1">
	<g id="REGISTER-00" transform="translate(-61.000000, -1383.000000)">
		<g id="Group-4-Copy" transform="translate(61.000000, 1383.000000)">
			<polygon id="Fill-46" class="st0" points="0,15.5 0,1 8.5,1 8.5,3.6 3.1,3.6 3.1,6.8 7.8,6.8 7.8,9.4 3.1,9.4 3.1,12.9 8.8,12.9 
				8.8,15.5 			"/>
			<polygon id="Fill-47" class="st0" points="14.8,1 14.8,12.9 20.1,12.9 20.1,15.5 11.6,15.5 11.6,1 			"/>
			<path id="Fill-48" class="st0" d="M18.8,1h3.5l2.2,7.8c0.4,1.3,0.7,2.6,1,4h0.1c0.3-1.3,0.6-2.6,1-4L28.9,1h3.3l-4.7,14.5h-4.1
				L18.8,1z"/>
			<path id="Fill-49" class="st0" d="M39.7,1.9c0,0.5-0.2,1-0.6,1.3c-0.4,0.4-0.8,0.5-1.4,0.5c-0.5,0-1-0.2-1.4-0.5
				c-0.4-0.4-0.6-0.8-0.6-1.3c0-0.5,0.2-1,0.6-1.3C36.8,0.2,37.2,0,37.8,0c0.5,0,1,0.2,1.4,0.5C39.5,0.9,39.7,1.4,39.7,1.9
				 M39.5,14.3l-0.2,0.9c-0.7,0.3-1.2,0.5-1.6,0.6c-0.4,0.1-0.9,0.2-1.4,0.2c-0.8,0-1.4-0.2-1.9-0.6c-0.4-0.4-0.7-0.9-0.7-1.5
				c0-0.2,0-0.5,0.1-0.7c0-0.2,0.1-0.5,0.2-0.8l0.8-3C34.9,9.1,35,8.8,35,8.6c0.1-0.3,0.1-0.5,0.1-0.7c0-0.4-0.1-0.6-0.2-0.8
				c-0.2-0.1-0.4-0.2-0.9-0.2c-0.2,0-0.4,0-0.7,0.1c-0.2,0.1-0.4,0.1-0.6,0.2L33,6.2c0.5-0.2,1.1-0.4,1.6-0.6c0.5-0.2,1-0.2,1.4-0.2
				c0.8,0,1.4,0.2,1.8,0.6c0.4,0.4,0.6,0.9,0.6,1.5c0,0.1,0,0.4,0,0.7c0,0.3-0.1,0.6-0.2,0.9l-0.8,3c-0.1,0.2-0.1,0.5-0.2,0.8
				c-0.1,0.3-0.1,0.5-0.1,0.7c0,0.4,0.1,0.7,0.3,0.8c0.2,0.1,0.5,0.2,0.9,0.2c0.2,0,0.4,0,0.7-0.1S39.4,14.3,39.5,14.3"/>
			<path id="Fill-50" class="st0" d="M47.9,11.7c0-2.3-6.7-2-6.7-6.6c0-2.4,2.1-4.3,5.1-4.3c2.4,0,4,1.1,4.4,1.7l-2,2.3
				c-0.4-0.4-1.2-1.3-2.7-1.3c-1,0-1.6,0.6-1.6,1.3c0,2.3,6.7,2,6.7,6.6c0,2.2-1.8,4.3-5.5,4.3c-2.8,0-4.6-1.2-5.1-1.8l1.8-2.6
				c0.6,0.6,1.9,1.7,3.7,1.7C47.3,13.1,47.9,12.4,47.9,11.7"/>
		</g>
	</g>
</g>
</svg>
