<?xml version="1.0" encoding="utf-8"?>
<!-- Generator: Adobe Illustrator 24.0.1, SVG Export Plug-In . SVG Version: 6.00 Build 0)  -->
<svg version="1.1" id="Layer_1" xmlns="http://www.w3.org/2000/svg" xmlns:xlink="http://www.w3.org/1999/xlink" x="0px" y="0px"
	 viewBox="0 0 198 62" style="enable-background:new 0 0 198 62;" xml:space="preserve">
<style type="text/css">
	.st0{fill-rule:evenodd;clip-rule:evenodd;fill:#FFFFFE;}
</style>
<title>Group 4</title>
<desc>Created with Sketch.</desc>
<g id="Page-1">
	<g id="REGISTER-00" transform="translate(-61.000000, -127.000000)">
		<g id="Group-2" transform="translate(-198.000000, 78.000000)">
			<g id="Group-4" transform="translate(259.000000, 49.000000)">
				<polygon id="Fill-46" class="st0" points="0,60 0,4 33.05,4 33.05,14.07 12.1,14.07 12.1,26.53 30.1,26.53 30.1,36.59 
					12.1,36.59 12.1,49.93 34,49.93 34,60 				"/>
				<polygon id="Fill-47" class="st0" points="57.28,4 57.28,49.93 78,49.93 78,60 45,60 45,4 				"/>
				<path id="Fill-48" class="st0" d="M73,4h13.64l8.67,30.36c1.44,5.19,2.89,10.15,4.01,15.5h0.32c1.04-5.19,2.25-10.15,3.77-15.58
					L112.08,4H125l-18.06,56H91.06L73,4z"/>
				<path id="Fill-49" class="st0" d="M154,7.24c0,2-0.74,3.69-2.23,5.1c-1.49,1.4-3.28,2.11-5.37,2.11s-3.89-0.7-5.39-2.11
					c-1.5-1.4-2.25-3.1-2.25-5.1c0-1.99,0.75-3.7,2.25-5.12S144.3,0,146.4,0s3.88,0.71,5.37,2.13C153.26,3.54,154,5.25,154,7.24
					 M153.19,55.31l-0.85,3.54c-2.56,1.02-4.6,1.81-6.13,2.34c-1.53,0.54-3.3,0.81-5.32,0.81c-3.1,0-5.51-0.77-7.23-2.3
					c-1.72-1.53-2.58-3.48-2.58-5.84c0-0.92,0.06-1.86,0.19-2.81c0.13-0.96,0.34-2.04,0.62-3.25l3.2-11.49
					c0.29-1.1,0.53-2.14,0.72-3.13c0.19-0.98,0.29-1.88,0.29-2.7c0-1.47-0.3-2.49-0.89-3.07c-0.6-0.58-1.74-0.87-3.42-0.87
					c-0.83,0-1.68,0.13-2.55,0.4c-0.87,0.26-1.61,0.51-2.24,0.75l0.85-3.54c2.1-0.87,4.1-1.61,6.02-2.23
					c1.92-0.61,3.73-0.93,5.44-0.93c3.08,0,5.46,0.76,7.13,2.26c1.67,1.51,2.5,3.47,2.5,5.89c0,0.5-0.06,1.38-0.17,2.64
					c-0.12,1.26-0.33,2.41-0.64,3.46l-3.19,11.45c-0.26,0.92-0.49,1.97-0.7,3.15c-0.21,1.18-0.31,2.07-0.31,2.68
					c0,1.52,0.34,2.56,1.01,3.11c0.67,0.55,1.83,0.83,3.49,0.83c0.77,0,1.65-0.14,2.63-0.41S152.75,55.52,153.19,55.31"/>
				<path id="Fill-50" class="st0" d="M185.49,45.15c0-8.93-26.07-7.72-26.07-25.5c0-9.33,8.23-16.65,19.93-16.65
					c9.44,0,15.34,4.34,17.19,6.76l-7.67,9.09c-1.37-1.69-4.6-5.23-10.57-5.23c-4.04,0-6.3,2.25-6.3,5.07
					c0,9.09,25.99,7.72,25.99,25.66C198,52.8,190.98,61,176.61,61c-10.9,0-17.68-4.83-19.61-7l7.02-10.14
					c2.42,2.41,7.34,6.76,14.21,6.76C183.15,50.62,185.49,48.13,185.49,45.15"/>
			</g>
		</g>
	</g>
</g>
</svg>
