<svg xmlns="http://www.w3.org/2000/svg" viewBox="0 0 440.65 47.16"><defs><style>.cls-1{fill:#08544a;}</style></defs><title>logo</title><g id="Laag_2" data-name="Laag 2"><g id="Layer_1" data-name="Layer 1"><path class="cls-1" d="M50.64,2.38c0,.21-.13.37-.24.37h-.06c-.11,0-.23-.16-.23-.37V1.65c0-.21.12-.36.23-.36h.06c.11,0,.24.15.24.36Zm1.29,0V1.65A1.6,1.6,0,0,0,50.4,0h-.06a1.59,1.59,0,0,0-1.52,1.65v.73A1.59,1.59,0,0,0,50.34,4h.06a1.6,1.6,0,0,0,1.53-1.65M56.66,10H55.09a7.55,7.55,0,0,0-1.2-3.64,4.69,4.69,0,0,1,1.63,1.12A4.41,4.41,0,0,1,56.66,10m-2.77,0H51V5.78c2.27.39,2.79,3,2.91,4.22m-4.11,0H46.87a7.78,7.78,0,0,1,.44-1.92,3.23,3.23,0,0,1,2.47-2.3ZM46.93,6.27A7.51,7.51,0,0,0,45.66,10H44.07a4.18,4.18,0,0,1,1-2.52,4.62,4.62,0,0,1,1.81-1.21m11,4.37a5.62,5.62,0,0,0-1.47-4c-1.29-1.39-3.29-2.1-5.95-2.13h-.17c-2.74,0-4.78.73-6.06,2.15a5.53,5.53,0,0,0-1.36,4l.06.54H57.84ZM99.46,45.87h-7v-7h7c0,.47,0,.94,0,1.43Zm-.13-8.29H92.46V29.29H88.31V20.55a24.24,24.24,0,0,1,5.86,4.73,20.4,20.4,0,0,1,2.56,3.59v.06h0a22,22,0,0,1,2.58,8.65m-2.6-11.13A24.05,24.05,0,0,0,89.82,20h6.91Zm-5.56,4.13V45.87h-7V30.58ZM87,29.29H82.88v8.29H76a23.14,23.14,0,0,1,3.19-9.41A22.83,22.83,0,0,1,87,20.43Zm-.81-9.88a24.44,24.44,0,0,0-4.93,4,36.86,36.86,0,0,0-16.46-9.17,72.77,72.77,0,0,1,16.35,3.12,40.12,40.12,0,0,1,5,2.07M61.64,14.77c5.49,1.15,13,3.75,18.79,9.58a24.37,24.37,0,0,0-5.19,10.32,36.36,36.36,0,0,0-2.6-8.26,25.66,25.66,0,0,0-5-7.41l-.11-.11a21.12,21.12,0,0,0-5.84-4.12m-2.34.42a20.28,20.28,0,0,1,5,2.63,21,21,0,0,1,2,1.72v11.6a19.65,19.65,0,0,0-7-8.82ZM58,45.87H51V30.58h7V45.87Zm0-16.58H51V19.6A26.82,26.82,0,0,1,58,23Zm0-7.85a27.78,27.78,0,0,0-7-3.19V13.72a25.93,25.93,0,0,1,7,1Zm1.28,2.48a17.41,17.41,0,0,1,7,13.66h-7V23.92Zm0,14.95h7v7h-7Zm8.29-18a24.75,24.75,0,0,1,3.86,6,36.49,36.49,0,0,1,2.93,10.67H67.59Zm0,18h6.92c.08.89.08,1.41.08,1.43v5.57h-7Zm8.29,1.43h0c0-.48,0-1,.05-1.43h6.95v7h-7ZM49.73,45.87h-7V30.58h7V45.87Zm0-16.58h-7V23a26.67,26.67,0,0,1,7-3.38Zm0-11a27.62,27.62,0,0,0-7,3.19V14.76a25.93,25.93,0,0,1,7-1ZM41.44,45.87h-7v-7h7Zm0-8.29h-7a17.43,17.43,0,0,1,7-13.66V37.58Zm0-15.26a19.63,19.63,0,0,0-7,8.82V19.54a19.5,19.5,0,0,1,7-4.35ZM39.1,14.77a21.21,21.21,0,0,0-3.4,2,22.18,22.18,0,0,0-2.3,1.95c-.08.08-.16.17-.25.25a25.63,25.63,0,0,0-5,7.41,36.36,36.36,0,0,0-2.6,8.26,24.48,24.48,0,0,0-5.19-10.32c5.73-5.83,13.3-8.43,18.78-9.58m-3-.6a36.93,36.93,0,0,0-16.65,9.22,24.22,24.22,0,0,0-5-4,53.07,53.07,0,0,1,16-4.6q2.82-.39,5.59-.62M13.72,20.43a23,23,0,0,1,7.8,7.74,23.29,23.29,0,0,1,3.19,9.41H17.86V29.29H13.72Zm2.86,10.15V45.87h-7V30.58Zm-4.15-1.29H8.29v8.29H1.41A22.29,22.29,0,0,1,4,29l0,0H4v-.08A22,22,0,0,1,11,21.44c.48-.32,1-.63,1.48-.94ZM10.86,20c-.22.13-.43.27-.63.41A23.73,23.73,0,0,0,4,26.43V20ZM1.32,38.87h7v7h-7V40.3c0-.49,0-1,0-1.43m16.54,0h7c0,.47,0,1,0,1.43v5.57h-7Zm8.5-1.29a36.41,36.41,0,0,1,2.93-10.67,25.32,25.32,0,0,1,3.86-6v16.7Zm-.21,2.72s0-.54.08-1.43h6.92v7h-7Zm66.31,6.86h8.29V40.3A24.47,24.47,0,0,0,98,28.55V18.68H87.62a40.31,40.31,0,0,0-6-2.56c-9.51-3.18-20.81-3.63-28.4-3.69-1.58-.06-2.6,0-2.81,0s-1.16-.05-2.7,0a126,126,0,0,0-17.33,1.09,52.73,52.73,0,0,0-17.29,5.16H2.73v9.86A24.68,24.68,0,0,0,0,40.3v6.86H92.46Zm39-17.31q0,3-7,3h-1.27V26.65h1.27q7,0,7,3.2m6-.25c0-3-1.05-5.19-3.17-6.54s-5.55-2-10.31-2h-6.79V46.77h6V38.5q6.51-.09,10.07-2a7.38,7.38,0,0,0,4.23-6.85m3.48,17.17h6V18.48h-.76l-5.21.53Zm20.9-6c0,.42-.32.8-.92,1.14a3.67,3.67,0,0,1-1.83.51,3.39,3.39,0,0,1-1.61-.36,1.65,1.65,0,0,1-1.07-1.58c0-1.39,1.23-2.08,3.69-2.08h1.74Zm6.58,6.38L171,43a4.9,4.9,0,0,1-2.68-1.08,3.52,3.52,0,0,1-.51-2.15V32.88a6.53,6.53,0,0,0-3.24-5.43,11,11,0,0,0-5.72-1.35A21.47,21.47,0,0,0,150.75,28L152,32.49a16.11,16.11,0,0,1,3-1.08,13.06,13.06,0,0,1,3.41-.58c2.24,0,3.37,1.34,3.37,4V35c-1.78-.12-3-.18-3.53-.18-2.74,0-4.74.51-6,1.51A5.6,5.6,0,0,0,150.4,41a5.6,5.6,0,0,0,2.36,4.87,7.11,7.11,0,0,0,4.39,1.32,7.76,7.76,0,0,0,5.78-2.43,4.94,4.94,0,0,0,2,1.86,8.15,8.15,0,0,0,3.45.57M187,46.77h6v-13c0-2.64-.58-4.59-1.72-5.82a6.75,6.75,0,0,0-5.2-1.86,10.39,10.39,0,0,0-3.47.55A17.26,17.26,0,0,0,179,28.5l-.76-2h-4.37V46.77h6V32.14a8,8,0,0,1,3.83-1.21q3.36,0,3.36,4.9Zm18.67.39a13,13,0,0,0,6.64-1.91l-1.81-4.13a6,6,0,0,1-3.38,1.21,2.88,2.88,0,0,1-2.46-1.13,6.66,6.66,0,0,1-.88-4V30.87h5.41V26.49H203.8V22.33h-.26l-5.72.53v3.63h-2v4.38h2v8.4a7.51,7.51,0,0,0,2.25,5.89,8.11,8.11,0,0,0,5.62,2m14.05-13.34a6.11,6.11,0,0,1,1.34-2.44,2.61,2.61,0,0,1,1.92-.9c1.34,0,2.14,1.11,2.4,3.34Zm-.3,4.37h11.62V34.83a9.86,9.86,0,0,0-1.6-5.88c-1.36-1.9-3.55-2.85-6.54-2.85A8.72,8.72,0,0,0,216,28.92q-2.46,2.83-2.46,7.84t3,7.71a10.56,10.56,0,0,0,7.21,2.69,15.28,15.28,0,0,0,6.87-1.35V41l-.07-.06a21,21,0,0,1-3.07,1.16,12.49,12.49,0,0,1-3.67.64,3.85,3.85,0,0,1-2.81-1.2,6,6,0,0,1-1.57-3.39m28.5,8.58h6v-13c0-2.64-.58-4.59-1.72-5.82A6.75,6.75,0,0,0,247,26.1a10.5,10.5,0,0,0-3.48.55,17.46,17.46,0,0,0-3.61,1.85l-.76-2h-4.38V46.77h6V32.14a8,8,0,0,1,3.83-1.21q3.36,0,3.36,4.9Zm18.67.39a13,13,0,0,0,6.64-1.91l-1.82-4.13a6,6,0,0,1-3.37,1.21,2.88,2.88,0,0,1-2.46-1.13,6.66,6.66,0,0,1-.88-4V30.87h5.41V26.49h-5.41V22.33h-.26l-5.72.53v3.63h-2v4.38h2v8.4A7.51,7.51,0,0,0,261,45.16a8.11,8.11,0,0,0,5.62,2m23.95-.39h4.37V26.49h-6V41.08a8,8,0,0,1-3.84,1.25q-3.35,0-3.34-4.94V26.49h-6v13q0,4,1.74,5.84a6.71,6.71,0,0,0,5.17,1.88,10.36,10.36,0,0,0,3.5-.57,16.69,16.69,0,0,0,3.59-1.88Zm14.76-20.28h-6V46.77h6Zm-.67-3a3.13,3.13,0,0,0,1-2.3,3.38,3.38,0,0,0-.89-2.33,2.73,2.73,0,0,0-2.11-1,2.7,2.7,0,0,0-2.1,1,3.36,3.36,0,0,0-.88,2.34,4,4,0,0,0,.64,2.32,2.27,2.27,0,0,0,2,1,3.21,3.21,0,0,0,2.36-1m19.44,23.25h6v-13c0-2.64-.58-4.59-1.72-5.82a6.75,6.75,0,0,0-5.2-1.86,10.39,10.39,0,0,0-3.47.55,17.26,17.26,0,0,0-3.62,1.85l-.76-2h-4.37V46.77h6V32.14a8,8,0,0,1,3.83-1.21q3.36,0,3.36,4.9Zm40.49,0h6L370.32,21h-6.15l-5.76,11.76L352.59,21h-6.14l-.17,25.75h6l.17-14.05,3,6.06h6l2.92-6Zm15.92-13a6.11,6.11,0,0,1,1.34-2.44,2.63,2.63,0,0,1,1.92-.9c1.34,0,2.14,1.11,2.4,3.34Zm-.3,4.37h11.63V34.83A9.86,9.86,0,0,0,390.22,29q-2-2.85-6.54-2.85a8.73,8.73,0,0,0-6.95,2.82q-2.46,2.83-2.46,7.84t3,7.71a10.56,10.56,0,0,0,7.21,2.69,15.35,15.35,0,0,0,6.88-1.35V41l-.08-.06a21,21,0,0,1-3.07,1.16,12.49,12.49,0,0,1-3.67.64,3.85,3.85,0,0,1-2.81-1.2,6,6,0,0,1-1.57-3.39m21-11.7h-6V46.77h6Zm-.67-3a3.08,3.08,0,0,0,.94-2.3,3.37,3.37,0,0,0-.88-2.33,2.75,2.75,0,0,0-2.11-1,2.68,2.68,0,0,0-2.1,1,3.36,3.36,0,0,0-.88,2.34,4,4,0,0,0,.64,2.32,2.27,2.27,0,0,0,2,1,3.21,3.21,0,0,0,2.36-1m20.49,17.25a5.6,5.6,0,0,0-2.33-4.85,13.33,13.33,0,0,0-3.36-1.57l-1.55-.55c-1.19-.44-1.79-1-1.79-1.61q0-1.26,2.52-1.26a10.62,10.62,0,0,1,4.61,1l.16-.08v-5A16.23,16.23,0,0,0,414,26.1a9.75,9.75,0,0,0-5.44,1.37,5.49,5.49,0,0,0-2.46,4.88q0,4.47,4.52,5.83l2.18.65a6,6,0,0,1,1.74.77,1.39,1.39,0,0,1,.59,1.18c0,1-.92,1.55-2.76,1.55a8.53,8.53,0,0,1-2.77-.41c-.82-.27-1.87-.65-3.14-1.16l-.12.09v5a12.49,12.49,0,0,0,6,1.32,11.21,11.21,0,0,0,6-1.52,5.38,5.38,0,0,0,2.8-4.87m13.93-7h-5.66a6.11,6.11,0,0,1,1.34-2.44,2.61,2.61,0,0,1,1.92-.9c1.34,0,2.14,1.11,2.4,3.34m5.66,4.37V34.83a9.86,9.86,0,0,0-1.6-5.88Q437,26.1,432.51,26.1a8.72,8.72,0,0,0-6.95,2.82c-1.64,1.89-2.47,4.5-2.47,7.84s1,5.92,3.05,7.71a10.56,10.56,0,0,0,7.21,2.69,15.28,15.28,0,0,0,6.87-1.35V41l-.07-.06a21,21,0,0,1-3.07,1.16,12.54,12.54,0,0,1-3.67.64,3.89,3.89,0,0,1-2.82-1.2A6,6,0,0,1,429,38.19Z"/></g></g></svg>