<?xml version="1.0" encoding="UTF-8"?> <svg xmlns="http://www.w3.org/2000/svg" viewBox="0 0 623 117"><path fill="#2870BB" d="M287.29 81.92c-3.62 0-6.04 1.93-8.31 4.59-.72-2.8-3.28-4.59-6.08-4.59-3.91 0-5.79 1.59-8.35 4.3V82.4h-2.9v25.11h2.9V89.02c1.55-2.41 5.22-4.78 7.44-4.78 2.8 0 4.35 1.4 4.35 4.2v19.07h2.9V89.02c1.55-2.41 5.22-4.78 7.44-4.78 2.8 0 4.35 1.4 4.35 4.2v19.07h2.9V88.73c-.03-4.39-2.25-6.81-6.64-6.81zM215.09 105.68c-5.7 0-8.06-4.92-8.06-10.62h17.48c0-7.78-3.24-13.14-10.04-13.14-6.38 0-10.33 5.26-10.33 13.04 0 8.84 4.15 13.04 10.72 13.04 4.78 0 7.24-1.69 9.95-6.13l-2.37-1.26c-2.52 3.96-4.11 5.07-7.35 5.07zm-.72-21.44c4.39.05 6.66 3.33 7.24 8.5h-14.58c.04-3.33 2.22-8.55 7.34-8.5zM248.8 100.9c-3.19 2.9-4.92 4.78-8.02 4.78-3.86 0-5.12-2.27-5.12-6.42V82.41h-2.9v17.14c0 5.46 2.22 8.45 7.44 8.45 3.67 0 5.89-1.64 8.59-4.44v3.96h2.9V82.41h-2.9l.01 18.49zM323.7 78.83v3.57h-4.15v2.32h4.15v22.79h2.9V84.73h5.12v-2.32h-5.12V78.5c0-2.9 1.16-4.01 3.43-4.01 1.06 0 1.93.19 2.85.48v-2.41c-1.06-.19-2.08-.39-3.14-.39-4.31 0-6.04 2.32-6.04 6.66zM182.68 88.64c0-3.04 2.17-4.39 4.97-4.39 2.99 0 4.83 1.45 6.52 3.77l2.22-1.54c-1.79-2.9-4.44-4.54-8.64-4.54-4.25 0-7.97 2.12-7.97 6.86 0 8.93 14.78 4.83 14.78 12.12 0 2.71-2.42 4.78-5.6 4.78-3.28 0-5.41-.87-7.77-4.25l-2.12 1.5c2.37 3.52 5.84 5.07 9.71 5.07 4.54 0 8.69-2.61 8.69-7.1-.01-9.77-14.79-6.15-14.79-12.28zM135.96 81.92c-3.62 0-6.04 1.93-8.31 4.59-.72-2.8-3.28-4.59-6.08-4.59-3.91 0-5.79 1.59-8.35 4.3V82.4h-2.9v25.11h2.9V89.02c1.55-2.41 5.22-4.78 7.44-4.78 2.8 0 4.35 1.4 4.35 4.2v19.07h2.9V89.02c1.55-2.41 5.22-4.78 7.44-4.78 2.8 0 4.35 1.4 4.35 4.2v19.07h2.9V88.73c-.03-4.39-2.25-6.81-6.64-6.81zM168.53 100.9c-3.19 2.9-4.92 4.78-8.02 4.78-3.86 0-5.12-2.27-5.12-6.42V82.41h-2.9v17.14c0 5.46 2.22 8.45 7.44 8.45 3.67 0 5.89-1.64 8.6-4.44v3.96h2.9V82.41h-2.9v18.49zM488.62 87.19h-.1v-4.78h-2.9v25.11h2.9v-14.2c0-4.83 4.15-8.59 7.34-8.59h1.3v-2.8h-1.3c-3.18-.01-5.89 2.17-7.24 5.26zM472.87 100.9c-3.19 2.9-4.93 4.78-8.02 4.78-3.86 0-5.12-2.27-5.12-6.42V82.41h-2.9v17.14c0 5.46 2.22 8.45 7.44 8.45 3.67 0 5.89-1.64 8.6-4.44v3.96h2.9V82.41h-2.9v18.49zM441.46 78.83v3.57h-4.15v2.32h4.15v22.79h2.9V84.73h5.12v-2.32h-5.12V78.5c0-2.9 1.16-4.01 3.43-4.01 1.06 0 1.93.19 2.85.48v-2.41c-1.06-.19-2.08-.39-3.14-.39-4.31 0-6.04 2.32-6.04 6.66zM515.1 84.73v-2.32h-5.51V74.2h-2.9v8.21h-3.77v2.32h3.77v18.88c0 3.04 1.35 4.39 5.46 4.39.97 0 1.98-.29 2.95-.43v-2.41c-.92.29-1.98.53-2.95.53-1.79 0-2.56-.87-2.56-2.56v-18.4h5.51zM430.79 82.41h-3.33l-11.64 13.33V72.65h-2.9v34.87h2.9V99.4l4.97-5.6 8.02 13.72h3.23l-9.41-15.74zM374.14 89.8c0-5.55-2.7-7.87-8.4-7.87-4.06 0-7.15 1.64-9.32 5.7l1.93 1.16c1.84-2.9 4.3-4.54 7.29-4.54 4.3 0 5.75 1.69 5.75 5.02V91c-10.48 2.32-16.08 3.57-16.08 10.43 0 4.15 2.99 6.57 6.91 6.57 3.86 0 6.13-1.16 9.13-3.52l.39 3.04h2.8c-.29-1.69-.39-3.33-.39-4.59V89.8h-.01zm-2.9 11.73c-2.51 2.56-5.84 4.15-8.55 4.15-2.61 0-4.49-1.54-4.49-4.3 0-3.19 1.54-5.55 13.04-8.06v8.21zM395.57 81.92c-3.67 0-5.89 1.64-8.6 4.44V82.4h-2.9v25.11h2.9V89.02c3.19-2.9 4.93-4.78 8.02-4.78 3.86 0 5.12 2.27 5.12 6.42v16.85h2.9V90.38c-.01-5.46-2.23-8.46-7.44-8.46zM341.99 87.19h-.1v-4.78h-2.9v25.11h2.9v-14.2c0-4.83 4.15-8.59 7.34-8.59h1.3v-2.8h-1.3c-3.19-.01-5.89 2.17-7.24 5.26z"></path><path d="M66.9 28.14h30.97v-5.9H66.9V8.72h32.8V2.83H59.79v46.56h41.16V43.5H66.9zM47.11 35.73c0 8.33-7.18 15.26-22.1 15.26C11.87 50.99 4.58 46.07 1 40.4l5.96-2.71c1.26 1.66 6.79 7.53 17.99 7.53 8.77 0 14.88-3.62 14.88-9.18 0-13.47-36.91-1.79-36.91-20.93C2.92 2.73 17.7 1.24 23.9 1.24c13.25 0 19.56 6.1 21.29 8.93l-5.9 2.64c-2.35-2.45-7.1-5.84-15.29-5.84-9.83 0-13.75 3.63-13.75 7.64 0 11.97 36.86.73 36.86 21.12M197.68 45.21c8.94 0 14.3-4.17 17.02-8.45l6.46 2.03c-3.37 5.75-10.24 12.2-23.43 12.2-16.04 0-25.95-9.83-25.95-25.07 0-16.93 12.71-24.68 25.77-24.68 13.13 0 19.43 6.21 22.98 12.23l-6.56 2.06c-3.21-5.14-9.09-8.52-16.42-8.52-10.1 0-18.43 6.93-18.43 18.7.01 11.47 7.18 19.5 18.56 19.5M231.08 2.83h7.03v46.56h-7.03zM621.98 25.22c0 .23.02.53.02.77 0 16.04-11.22 25-25.68 25-15.72 0-26.4-9.18-26.4-24.34 0-17.4 13.17-25.41 25.99-25.41 11.14 0 19.11 5.7 22.88 12.5l-6.07 1.91c-2.69-4.08-8.02-8.63-16.99-8.63-9.17 0-18.52 5.97-18.52 19.23 0 10.42 6 18.97 19.12 18.97 15.35 0 18.02-11.76 18.37-14.14h-19.22v-5.86h26.5zM429.94 43.63h-21.92V28.07h21.92c6.68 0 9.77 2.62 9.77 7.73 0 4.99-3.39 7.83-9.77 7.83m9.54-19.1c1.92-.88 5.38-4.09 5.38-9.89 0-6.61-3.46-11.81-15.03-11.81h-28.92v46.56h28.92c12.1 0 17.16-5.16 17.16-13.35 0-4.02-1.38-8.71-7.51-11.51M408.02 8.6h20.62c6.65 0 9 2.72 9 6.87 0 4.39-2.66 6.91-8.53 6.91h-21.1V8.6h.01zM152.57 2.83h6.74V49.4h-7.5l-31.36-37.12V49.4h-6.74V2.83h7.48l31.38 37.14zM547.28 30.66l14.59 18.73h-9.01l-13.69-18.13h-17.35v18.13h-7.11V2.83h28.17c9.9 0 16.94 4.03 16.94 13.96 0 9.07-6.54 12.89-12.54 13.87m-25.46-5.07h20.28c7.22 0 10.5-3.65 10.5-8.54 0-5.17-3.21-8.41-10.5-8.41h-20.28v16.95zM467.9 28.14h30.97v-5.9H467.9V8.72h32.8V2.83h-39.92v46.56h41.17V43.5H467.9zM292.46 28.14h30.97v-5.9h-30.97V8.72h32.8V2.83h-39.91v46.56h41.16V43.5h-34.05zM378.13 2.83h6.74V49.4h-7.5l-31.36-37.12V49.4h-6.74V2.83h7.48l31.38 37.14zM275.3 2.83l-23.2 21.21 25.02 25.35h-9.89l-24.29-25.02 22.71-21.54z"></path></svg> 